<?xml version="1.0" encoding="UTF-8" standalone="no"?>
<!-- Wikimedia Commons, User:Sven. Hand edited. :)-->

<svg
   width="128"
   height="128"
   viewBox="0 0 96.000001 96.000003"
   id="svg2"
   version="1.1"
   inkscape:version="1.2.2 (732a01da63, 2022-12-09, custom)"
   sodipodi:docname="inkskape-addons.svg"
   inkscape:export-filename="/home/doctormo/Desktop/addons.png"
   inkscape:export-xdpi="152"
   inkscape:export-ydpi="152"
   xmlns:inkscape="http://www.inkscape.org/namespaces/inkscape"
   xmlns:sodipodi="http://sodipodi.sourceforge.net/DTD/sodipodi-0.dtd"
   xmlns:xlink="http://www.w3.org/1999/xlink"
   xmlns="http://www.w3.org/2000/svg"
   xmlns:svg="http://www.w3.org/2000/svg"
   xmlns:rdf="http://www.w3.org/1999/02/22-rdf-syntax-ns#"
   xmlns:cc="http://creativecommons.org/ns#"
   xmlns:dc="http://purl.org/dc/elements/1.1/">
  <metadata
     id="metadata57">
    <rdf:RDF>
      <cc:Work
         rdf:about="">
        <dc:format>image/svg+xml</dc:format>
        <dc:type
           rdf:resource="http://purl.org/dc/dcmitype/StillImage" />
        <dc:title />
      </cc:Work>
    </rdf:RDF>
  </metadata>
  <defs
     id="defs55">
    <clipPath
       id="clipPath712">
      <path
         id="path714"
         inkscape:connector-curvature="0"
         d="m 3711.8,1621 c 1.65,2.4 3.19,5 4.64,7.76 l 0.61,0 c 1.34,0 2.67,0.06 3.99,0.19 -2.82,-3.21 -5.89,-5.89 -9.24,-7.95 m -582.76,582.77 c 2.06,3.35 4.74,6.42 7.95,9.24 -0.15,-1.52 -0.21,-3.05 -0.19,-4.6 -2.76,-1.45 -5.36,-2.99 -7.76,-4.64" />
    </clipPath>
    <linearGradient
       id="linearGradient3036"
       gradientUnits="userSpaceOnUse"
       xlink:href="#linearGradient11554"
       inkscape:collect="always"
       gradientTransform="matrix(152.32,152.32,152.32,-152.32,223.42,72.625)" />
    <linearGradient
       id="linearGradient11554"
       gradientUnits="userSpaceOnUse"
       inkscape:collect="always"
       gradientTransform="matrix(152.32,152.32,152.32,-152.32,223.42,72.625)">
      <stop
         id="stop718"
         style="stop-color:#c14d9d"
         offset="0" />
      <stop
         id="stop720"
         style="stop-color:#da45a4"
         offset="1" />
    </linearGradient>
    <clipPath
       id="clipPath680">
      <path
         id="path682"
         inkscape:connector-curvature="0"
         d="m 3752.3,753.38 -13.46,0 0,12.73 13.46,-0.007 0,-12.72" />
    </clipPath>
    <clipPath
       id="clipPath114">
      <path
         id="path116"
         inkscape:connector-curvature="0"
         d="m 3217.1,1932.8 c 19.99,128.64 -54.89,140.42 -95.98,231.75 -5.9,13.11 -7.38,25.56 -3.18,36.77 -1.62,-4.35 -2.39,-8.88 -2.39,-13.56 0.01,-7.4 1.97,-15.18 5.58,-23.21 36.39,-80.89 99.29,-99.38 99.3,-191.94 0,-11.94 -1.05,-25.11 -3.33,-39.81" />
    </clipPath>
    <linearGradient
       id="linearGradient3032"
       gradientUnits="userSpaceOnUse"
       xlink:href="#linearGradient11502"
       inkscape:collect="always"
       gradientTransform="matrix(153.68,153.68,153.68,-153.68,223.84,223.84)" />
    <linearGradient
       id="linearGradient11502"
       gradientUnits="userSpaceOnUse"
       inkscape:collect="always"
       gradientTransform="matrix(153.68,153.68,153.68,-153.68,223.84,223.84)">
      <stop
         id="stop120"
         style="stop-color:#296793"
         offset="0" />
      <stop
         id="stop122"
         style="stop-color:#429bd4"
         offset="1" />
    </linearGradient>
    <clipPath
       id="clipPath98">
      <path
         id="path100"
         inkscape:connector-curvature="0"
         d="m 3175.4,1839.8 c 20.92,24.68 35.84,55.66 41.66,92.98 -5.8,-37.25 -20.66,-68.2 -41.53,-92.87 -0.04,-0.03 -0.09,-0.08 -0.13,-0.11" />
    </clipPath>
    <linearGradient
       inkscape:collect="always"
       xlink:href="#linearGradient11502"
       id="linearGradient16644"
       gradientUnits="userSpaceOnUse"
       gradientTransform="matrix(153.68,153.68,153.68,-153.68,223.84,223.84)" />
    <linearGradient
       inkscape:collect="always"
       xlink:href="#linearGradient11554"
       id="linearGradient16646"
       gradientUnits="userSpaceOnUse"
       gradientTransform="matrix(152.32,152.32,152.32,-152.32,223.42,72.625)" />
    <filter
       inkscape:collect="always"
       style="color-interpolation-filters:sRGB"
       id="filter6701"
       x="-0.07220341"
       y="-0.06758618"
       width="1.1444068"
       height="1.1351724">
      <feGaussianBlur
         inkscape:collect="always"
         stdDeviation="1.7201192"
         id="feGaussianBlur6703" />
    </filter>
    <filter
       inkscape:collect="always"
       style="color-interpolation-filters:sRGB"
       id="filter6705"
       x="-0.053373734"
       y="-0.11656332"
       width="1.1067475"
       height="1.2331266">
      <feGaussianBlur
         inkscape:collect="always"
         stdDeviation="1.7201192"
         id="feGaussianBlur6707" />
    </filter>
    <filter
       inkscape:collect="always"
       style="color-interpolation-filters:sRGB"
       id="filter6709"
       x="-0.041499181"
       y="-0.038635656"
       width="1.0829984"
       height="1.0772713">
      <feGaussianBlur
         inkscape:collect="always"
         stdDeviation="0.91131849"
         id="feGaussianBlur6711" />
    </filter>
    <filter
       inkscape:collect="always"
       style="color-interpolation-filters:sRGB"
       id="filter6713"
       x="-0.030751435"
       y="-0.047443507"
       width="1.0615029"
       height="1.094887">
      <feGaussianBlur
         inkscape:collect="always"
         stdDeviation="1.2150914"
         id="feGaussianBlur6715" />
    </filter>
    <filter
       inkscape:collect="always"
       style="color-interpolation-filters:sRGB"
       id="filter6717"
       x="-0.039226394"
       y="-0.06182904"
       width="1.0784528"
       height="1.1236581">
      <feGaussianBlur
         inkscape:collect="always"
         stdDeviation="0.55476114"
         id="feGaussianBlur6719" />
    </filter>
  </defs>
  <sodipodi:namedview
     pagecolor="#525252"
     bordercolor="#666666"
     borderopacity="1"
     objecttolerance="10"
     gridtolerance="10"
     guidetolerance="10"
     inkscape:pageopacity="0"
     inkscape:pageshadow="2"
     inkscape:window-width="1447"
     inkscape:window-height="1230"
     id="namedview53"
     showgrid="false"
     units="px"
     inkscape:zoom="6.6102096"
     inkscape:cx="61.3445"
     inkscape:cy="64.06756"
     inkscape:window-x="-5"
     inkscape:window-y="245"
     inkscape:window-maximized="0"
     inkscape:current-layer="g17316"
     inkscape:showpageshadow="2"
     inkscape:pagecheckerboard="0"
     inkscape:deskcolor="#525252" />
  <style
     type="text/css"
     id="style26">
	.specularity {opacity:0.5;}
	.low-specularity {opacity:0.25;}
	.full-specularity {opacity:1;}
	.black {fill:#000000;}
	.white {fill:#ffffff;}
	.outline-big {stroke-width:16;stroke:none;opacity:0.1;fill:none;}
	.outline-small {stroke-width:8;stroke:none;opacity:0.2;fill:none;}
	.stroke-highlight {fill:none;stroke:none;opacity:0.2;}
       	.base-shadow 	{fill:black;opacity:75;}
	</style>
  <style
     type="text/css"
     id="style26-3" />
  <g
     id="g17316"
     transform="matrix(0.99603274,0,0,0.99603274,-56.954574,1.1891542)">
    <g
       transform="matrix(0.01645088,0,0,-0.01645088,41.98969,59.384985)"
       id="g94">
      <g
         clip-path="url(#clipPath98)"
         id="g96">
        <path
           d="m 3175.4,1839.8 c 20.92,24.68 35.84,55.66 41.66,92.98 -5.8,-37.25 -20.66,-68.2 -41.53,-92.87 -0.04,-0.03 -0.09,-0.08 -0.13,-0.11"
           inkscape:connector-curvature="0"
           style="fill:url(#linearGradient16644)"
           id="path108" />
      </g>
    </g>
    <g
       transform="matrix(0.01645088,0,0,-0.01645088,41.98969,59.384985)"
       id="g110">
      <g
         clip-path="url(#clipPath114)"
         id="g112">
        <path
           d="m 3217.1,1932.8 c 19.99,128.64 -54.89,140.42 -95.98,231.75 -5.9,13.11 -7.38,25.56 -3.18,36.77 -1.62,-4.35 -2.39,-8.88 -2.39,-13.56 0.01,-7.4 1.97,-15.18 5.58,-23.21 36.39,-80.89 99.29,-99.38 99.3,-191.94 0,-11.94 -1.05,-25.11 -3.33,-39.81"
           inkscape:connector-curvature="0"
           style="fill:url(#linearGradient3032)"
           id="path124" />
      </g>
    </g>
    <g
       transform="matrix(0.01645088,0,0,-0.01645088,41.98969,59.384985)"
       id="g676">
      <g
         clip-path="url(#clipPath680)"
         id="g678">
        <path
           d="m 3752.3,753.38 -13.46,0 0,12.73 13.46,-0.007 0,-12.72"
           inkscape:connector-curvature="0"
           style="fill:url(#linearGradient16646)"
           id="path690" />
      </g>
    </g>
    <g
       transform="matrix(0.01645088,0,0,-0.01645088,41.98969,59.384985)"
       id="g708">
      <g
         clip-path="url(#clipPath712)"
         id="g710">
        <path
           d="m 3711.8,1621 c 1.65,2.4 3.19,5 4.64,7.76 l 0.61,0 c 1.34,0 2.67,0.06 3.99,0.19 -2.82,-3.21 -5.89,-5.89 -9.24,-7.95 m -582.76,582.77 c 2.06,3.35 4.74,6.42 7.95,9.24 -0.15,-1.52 -0.21,-3.05 -0.19,-4.6 -2.76,-1.45 -5.36,-2.99 -7.76,-4.64"
           inkscape:connector-curvature="0"
           style="fill:url(#linearGradient3036)"
           id="path722" />
      </g>
    </g>
    <path
       sodipodi:nodetypes="cccccccccccc"
       id="path5071"
       d="m 105.05401,-0.33526694 c -2.73322,-0.003727 -5.443921,1.00333872 -7.442109,3.04854844 l -28.496232,29.1587265 -0.04007,0.05097 c -1.036048,0.682215 -1.828843,1.750303 -2.376373,2.927448 L 144.046,35.081405 c -0.51087,-0.728952 -1.14411,-1.468321 -1.90309,-2.228387 l -0.009,-0.0109 -29.49361,-30.1451795 -0.0164,-0.016401 c -2.08155,-1.99843054 -4.83629,-3.01196377 -7.56951,-3.01578438 z"
       style="color:#000000;font-style:normal;font-variant:normal;font-weight:normal;font-stretch:normal;font-size:medium;line-height:normal;font-family:sans-serif;text-indent:0;text-align:start;text-decoration:none;text-decoration-line:none;text-decoration-style:solid;text-decoration-color:#000000;letter-spacing:normal;word-spacing:normal;text-transform:none;direction:ltr;writing-mode:lr-tb;baseline-shift:baseline;text-anchor:start;white-space:normal;clip-rule:nonzero;display:inline;overflow:visible;visibility:visible;opacity:1;isolation:auto;mix-blend-mode:normal;color-interpolation:sRGB;color-interpolation-filters:linearRGB;solid-color:#000000;solid-opacity:1;fill:#0e0e0e;fill-opacity:1;fill-rule:nonzero;stroke:none;stroke-width:7.8616786;stroke-linecap:butt;stroke-linejoin:miter;stroke-miterlimit:4;stroke-dasharray:none;stroke-dashoffset:0;stroke-opacity:1;color-rendering:auto;image-rendering:auto;shape-rendering:auto;text-rendering:auto;enable-background:accumulate;filter:url(#filter6705)"
       inkscape:connector-curvature="0" />
    <path
       transform="translate(-0.26516504,0.13258252)"
       d="m 115.20703,33.121094 c -1.41026,0.02209 -2.77246,0.112698 -4.06445,0.347656 a 2.2361111,2.2361111 0 0 0 -0.44727,0.130859 c -0.43393,0.177939 -0.77616,0.343244 -1.14843,0.654297 -0.3713,0.310238 -0.81404,1.177143 -0.86329,1.41211 -0.1653,0.803724 -0.0397,0.713382 -0.0137,0.880859 0.0262,0.168591 0.0626,0.325284 0.11328,0.492187 0.10141,0.333807 0.25795,0.701756 0.49414,1.101563 0.42926,0.726603 0.92783,1.338364 1.36719,1.935547 0.46901,0.637507 0.72963,1.034622 0.83985,1.40039 1.00613,3.491248 -3.31652,6.816064 -6.50977,5.253907 a 2.2361111,2.2361111 0 0 0 -0.23047,-0.0957 c -2.93325,-1.063358 -3.7609,-5.126264 -1.70312,-7.392578 0.003,-0.0034 0.003,-0.0084 0.006,-0.01172 l -0.0371,0.03711 c 0.39513,-0.374028 0.70112,-0.737913 0.92578,-1.09375 0.22901,-0.36273 0.38638,-0.604872 0.48437,-1.208984 -0.008,0.05042 -0.015,0.106911 0.0137,-0.07227 0.0287,-0.179177 0.0501,-0.826459 -0.17773,-1.324219 -0.45558,-0.995518 -0.5751,-0.776417 -0.61524,-0.814453 -0.85018,-0.805466 -1.30207,-0.809027 -2.02539,-1.001953 -0.72331,-0.192926 -1.57575,-0.320515 -2.525386,-0.291015 l 0.07617,-0.002 -9.697266,-0.02148 a 2.2361111,2.2361111 0 0 0 -2.242188,2.230469 l -0.03125,13.847656 a 2.2361111,2.2361111 0 0 0 0.0059,0.162109 c 0.07105,1.015975 -0.0683,1.626541 -0.25,1.980469 -0.142974,0.278487 -0.43554,0.463037 -0.572266,0.496094 -0.646761,0.15638 -1.325049,-0.156321 -1.830078,-0.824219 -0.498046,-0.658607 -0.968718,-0.951474 -1.566406,-1.285156 -0.597688,-0.333682 -1.297757,-0.621362 -2.115234,-0.775391 -1.525595,-0.287417 -3.328483,-0.100607 -4.814454,1.007813 -1.536369,1.145869 -2.372591,2.916691 -2.623046,4.808594 a 2.2361111,2.2361111 0 0 0 -0.228516,1.021484 c 0.03227,1.787346 0.753331,3.637699 2.144531,5.166016 0.918151,1.008689 2.068097,1.621866 3.775391,1.808593 1.576423,0.172424 3.613182,-0.308433 5.345703,-1.826172 0.482674,-0.422809 0.903885,-0.693563 1.28125,-0.832031 0.293125,-0.107576 0.532752,-0.08519 0.613281,-0.04102 0.122007,0.06692 0.346688,0.278829 0.53711,0.945313 0.197377,0.690811 0.316312,1.753182 0.265624,3.287109 a 2.2361111,2.2361111 0 0 0 -0.002,0.07422 l 0,0.03711 c -0.008,3.713289 0.13915,8.93798 0.171875,13.017579 a 2.2361111,2.2361111 0 0 0 2.25586,2.21875 l 9.943359,-0.08594 c 1.702907,-0.0071 2.575497,0.436923 2.707027,0.496094 -0.0307,0.144679 -0.13066,0.495061 -0.55664,1.076172 l 0.32618,-0.357422 c -1.49113,1.310924 -2.581005,3.264251 -2.585942,5.517578 a 2.2361111,2.2361111 0 0 0 0,0.002 c -0.0085,4.153752 3.398532,7.57682 7.552732,7.585938 4.1541,0.0092 7.57878,-3.398434 7.58789,-7.552735 0.005,-1.858464 -0.76866,-3.446913 -1.70312,-4.640625 a 2.2361111,2.2361111 0 0 0 -0.006,-0.0078 c -0.66641,-0.843546 -0.82679,-1.307974 -0.90625,-1.556641 0.20094,-0.05714 1.40018,-0.501089 3.22266,-0.527344 l 12.8164,0.02734 c 1.18349,0.0014 2.29688,-1.114863 2.29688,-2.292969 l 0.0293,-13.302734 a 2.2361111,2.2361111 0 0 0 -0.0117,-0.226562 c -0.0942,-0.950882 -0.19812,-1.798187 -0.40039,-2.603516 -0.20227,-0.805329 -0.44429,-1.669166 -1.36328,-2.439453 -0.91899,-0.770287 -2.45666,-0.818068 -3.39062,-0.445313 -0.93396,0.372755 -1.65357,0.944863 -2.5,1.714844 l 0.125,-0.105469 c -0.83281,0.651917 -1.67743,1.009772 -2.57032,1.007813 -2.30128,-0.0051 -3.88052,-1.897364 -3.875,-4.417969 0.006,-2.479757 1.62081,-4.243481 3.99024,-4.238281 1.08245,0.0024 2.23434,0.633765 3.05078,1.5625 a 2.2361111,2.2361111 0 0 0 0.25195,0.24414 c 0.62395,0.517455 1.24833,0.937854 2.08594,1.148438 0.83761,0.210584 1.95606,0.0305 2.67383,-0.476563 1.43554,-1.014116 1.58652,-2.20025 1.88086,-3.257812 a 2.2361111,2.2361111 0 0 0 0.082,-0.595703 l 0.0332,-15.257813 c 7e-5,-0.02861 -0.0295,-0.06963 -0.0312,-0.09961 l 0,-0.09961 a 2.2361111,2.2361111 0 0 0 -2.28125,-2.236328 c -3.86554,0.07803 -8.62225,-0.466741 -12.85742,-0.40039 z"
       id="path17314"
       style="color:#000000;fill:#0e0e0e;fill-opacity:1;filter:url(#filter6701)"
       inkscape:original="M 115.24219 35.357422 C 113.90743 35.378333 112.65593 35.465569 111.54297 35.667969 C 110.92613 35.920911 110.88225 36.070058 110.87305 36.115234 C 110.86305 36.163444 110.90493 36.499149 111.20312 37.003906 C 111.50132 37.508665 111.97945 38.118749 112.44531 38.751953 C 112.91117 39.385176 113.38391 40.021139 113.62891 40.839844 L 113.62891 40.847656 L 113.63281 40.851562 C 115.18939 46.230936 108.93282 51.155264 103.99219 48.738281 L 103.99219 48.742188 C 99.51926 47.129816 98.254422 41.160674 101.39648 37.722656 L 101.42969 37.691406 L 101.46289 37.658203 C 102.03385 37.122235 102.19235 36.734048 102.21289 36.607422 C 102.23339 36.480777 102.25583 36.52129 102.10352 36.376953 C 101.79882 36.08828 100.55127 35.652099 99.160156 35.695312 L 89.462891 35.673828 L 89.431641 49.521484 C 89.520951 50.798537 89.368712 51.843522 88.939453 52.679688 C 88.498672 53.538247 87.719812 54.130957 86.904297 54.328125 C 85.273327 54.722477 83.710708 53.927601 82.765625 52.677734 C 82.461479 52.275537 81.514592 51.666798 80.453125 51.466797 C 79.391563 51.266802 78.27983 51.405577 77.388672 52.070312 C 76.141865 53.000217 75.41095 54.477737 75.439453 56.066406 L 75.4375 56.066406 C 75.45981 57.302008 75.940904 58.604098 77 59.767578 C 77.371433 60.175638 78.293902 60.742417 79.363281 60.859375 C 80.43258 60.976331 81.662765 60.740543 82.994141 59.574219 C 83.595644 59.047318 84.240658 58.594965 84.978516 58.324219 C 85.716255 58.053471 86.635641 57.982034 87.4375 58.421875 C 88.239457 58.861722 88.755268 59.687369 89.048828 60.714844 C 89.340095 61.734265 89.453711 63.016743 89.398438 64.689453 L 89.398438 64.726562 C 89.390438 68.375495 89.537268 73.607186 89.570312 77.726562 L 99.523438 77.640625 C 103.86443 77.622635 105.92428 79.445702 103.48633 82.771484 C 102.40195 83.724816 101.66354 85.072504 101.66016 86.615234 C 101.65416 89.560517 104.03713 91.954474 106.98242 91.960938 C 109.9275 91.967438 112.32166 89.583956 112.32812 86.638672 C 112.33113 85.399604 111.81892 84.299194 111.10156 83.382812 C 107.50038 78.824398 110.8173 77.738063 115.14062 77.675781 L 127.99219 77.703125 C 128.02419 77.703195 128.04883 77.678514 128.04883 77.646484 L 128.07812 64.337891 C 127.71861 60.709702 127.14356 59.276993 124.15234 61.998047 C 123.03867 62.869822 121.70283 63.485726 120.19727 63.482422 C 116.61832 63.474522 114.08395 60.401209 114.0918 56.822266 C 114.0998 53.243322 116.74547 50.345663 120.32422 50.353516 C 122.19907 50.357616 123.89037 51.357987 125.04883 52.675781 C 126.94426 54.247708 127.58112 53.101954 128.10742 51.210938 L 128.14062 35.951172 C 128.14068 35.927162 128.13028 35.907167 128.10938 35.898438 L 128.10938 35.757812 C 124.0105 35.840548 119.24646 35.294689 115.24219 35.357422 z "
       inkscape:radius="2.2358875"
       sodipodi:type="inkscape:offset" />
    <path
       inkscape:connector-curvature="0"
       style="color:#000000;fill:#2a6ebe;fill-opacity:1;filter:url(#filter6709)"
       d="m 75.437818,56.066806 c 0.02231,1.235602 0.503872,2.53734 1.562968,3.70082 0.371433,0.40806 1.293045,0.973993 2.362424,1.090951 1.069299,0.116956 2.298843,-0.117117 3.630219,-1.283441 0.601503,-0.526901 1.24733,-0.979271 1.985188,-1.250017 0.737739,-0.270748 1.657255,-0.343961 2.459114,0.09588 0.801957,0.439847 1.317709,1.266935 1.611269,2.29441 0.291267,1.019421 0.404352,2.300857 0.349079,3.973567 l -8.2e-5,0.03701 c -0.008,3.648932 0.139972,8.881278 0.173016,13.000655 l 9.952946,-0.08509 c 4.340991,-0.01799 6.399501,1.803228 3.961551,5.12901 -1.08438,0.953332 -1.82287,2.302691 -1.82625,3.845421 -0.006,2.945283 2.37722,5.339454 5.32251,5.345918 2.94508,0.0065 5.33945,-2.377222 5.34591,-5.322506 0.003,-1.239068 -0.50929,-2.339443 -1.22665,-3.255825 -3.60118,-4.558415 -0.28441,-5.645465 4.03891,-5.707747 l 12.85213,0.0282 c 0.032,7e-5 0.0577,-0.02542 0.0577,-0.05745 l 0.0292,-13.308641 c -0.35951,-3.628189 -0.93532,-5.06167 -3.92654,-2.340616 -1.11367,0.871775 -2.44994,1.487538 -3.9555,1.484234 -3.57895,-0.0079 -6.11298,-3.080701 -6.10513,-6.659644 0.008,-3.578944 2.65385,-6.475729 6.2326,-6.467876 1.87485,0.0041 3.56607,1.004012 4.72453,2.321806 1.89543,1.571927 2.53274,0.425376 3.05904,-1.46564 l 0.0335,-15.25806 c 6e-5,-0.02401 -0.0119,-0.04481 -0.0328,-0.05354 l 6.5e-4,-0.139834 c -5.46517,0.110314 -12.11393,-0.899418 -16.56579,-0.08982 -0.61684,0.252942 -0.66218,0.40164 -0.67138,0.446816 -0.01,0.04821 0.033,0.384324 0.33119,0.889081 0.29819,0.504759 0.77644,1.113313 1.2423,1.746517 0.46586,0.633223 0.93899,1.268952 1.18399,2.087657 l -1e-5,0.0082 0.004,0.0041 c 1.55658,5.379374 -4.70045,10.304656 -9.64108,7.887673 l -1e-5,0.0041 C 99.519602,47.130713 98.254698,41.161578 101.39676,37.72356 l 0.033,-0.03283 0.033,-0.03283 c 0.57096,-0.535968 0.73028,-0.924576 0.75082,-1.051202 0.0205,-0.126645 0.0418,-0.08622 -0.11051,-0.230557 -0.3047,-0.288673 -1.55211,-0.724161 -2.943223,-0.680948 l -9.69767,-0.02128 -0.03039,13.847398 c 0.08931,1.277053 -0.06297,2.321383 -0.492229,3.157548 -0.440781,0.85856 -1.21978,1.451684 -2.035295,1.648852 -1.63097,0.394352 -3.192745,-0.400195 -4.137828,-1.650062 -0.304146,-0.402197 -1.251268,-1.010101 -2.312735,-1.210102 -1.061562,-0.199995 -2.174088,-0.06279 -3.065246,0.601946 -1.246807,0.929905 -1.978479,2.408718 -1.949976,3.997387 z"
       id="path12079" />
    <path
       id="path12081"
       transform="matrix(0.74999998,0,0,0.74999998,0,2.8610229e-6)"
       d="m 140.07617,1.4316406 c -3.17719,-0.00635 -6.32351,1.1468128 -8.60351,3.4804688 L 93.541016,43.728516 c -0.274092,0.339428 -0.510785,0.658964 -0.753907,0.982422 l 38.841801,0 c 2.36948,-0.07177 4.60961,0.304346 6.14648,1.753906 0.77439,0.730526 1.29173,1.933131 1.10352,3.109375 -0.18284,1.142372 -0.85911,2.140706 -1.8711,3.115234 -0.003,0.0037 -0.001,0.0088 -0.004,0.01172 -2.62518,2.898697 -1.51607,8.235061 2.22461,9.574219 l 0.0996,0.0332 0.0938,0.04883 c 4.07468,2.110703 9.83356,-2.329545 8.5371,-6.773438 -0.0988,-0.316944 -0.52421,-1.029555 -1.0957,-1.802734 -0.57579,-0.779084 -1.2673,-1.642526 -1.83203,-2.59375 -0.56472,-0.951172 -1.10264,-2.072244 -0.83398,-3.416016 0.26868,-1.343928 1.43373,-2.386227 2.97265,-2.978515 l 0.13086,-0.04883 0.13672,-0.02734 c 4.47474,-0.862292 24.07859,-0.520581 40.18164,-0.195313 L 148.86523,4.9121094 c -2.40424,-2.3082441 -5.61187,-3.4741158 -8.78906,-3.4804688 z"
       style="color:#000000;fill:#2a6ebe;fill-opacity:1;filter:url(#filter6713)"
       inkscape:connector-curvature="0" />
    <path
       d="M 109.92976,5.7260738 121.1851,17.157176 c 1.06729,1.090592 1.05247,3.204012 0.45529,3.811779 l -5.58849,-4.47037 -1.09906,6.61979 -4.66943,-2.46495 -7.47744,4.724488 -2.47554,-9.959332 -4.017194,6.950144 -6.1412,0 c -2.503068,0 -2.797422,-3.176482 -0.52306,-5.450844 3.972721,-4.288252 8.532032,-8.6590917 11.009684,-11.1918072 2.49037,-2.5454215 6.82944,-2.4734212 9.2711,0 z"
       id="path2317"
       style="fill:#ffffff;stroke-width:5.37040424;filter:url(#filter6717)"
       inkscape:connector-curvature="0" />
  </g>
</svg>
